{
	"asset":{
		"generator":"Khronos glTF Blender I/O v3.6.27",
		"version":"2.0"
	},
	"scene":0,
	"scenes":[
		{
			"name":"Scene",
			"nodes":[
				0
			]
		}
	],
	"nodes":[
		{
			"mesh":0,
			"name":"Tavern",
			"scale":[
				7.426153182983398,
				7.426153182983398,
				7.426153182983398
			],
			"translation":[
				-223.23536682128906,
				12.771705627441406,
				-63.73915100097656
			]
		}
	],
	"meshes":[
		{
			"name":"Plane.127",
			"primitives":[
				{
					"attributes":{
						"POSITION":0,
						"NORMAL":1,
						"TEXCOORD_0":2
					},
					"indices":3
				}
			]
		}
	],
	"accessors":[
		{
			"bufferView":0,
			"componentType":5126,
			"count":488,
			"max":[
				1,
				0.675367534160614,
				1.0328984260559082
			],
			"min":[
				-1,
				-2.6539416313171387,
				-1.0328984260559082
			],
			"type":"VEC3"
		},
		{
			"bufferView":1,
			"componentType":5126,
			"count":488,
			"type":"VEC3"
		},
		{
			"bufferView":2,
			"componentType":5126,
			"count":488,
			"type":"VEC2"
		},
		{
			"bufferView":3,
			"componentType":5123,
			"count":966,
			"type":"SCALAR"
		}
	],
	"bufferViews":[
		{
			"buffer":0,
			"byteLength":5856,
			"byteOffset":0,
			"target":34962
		},
		{
			"buffer":0,
			"byteLength":5856,
			"byteOffset":5856,
			"target":34962
		},
		{
			"buffer":0,
			"byteLength":3904,
			"byteOffset":11712,
			"target":34962
		},
		{
			"buffer":0,
			"byteLength":1932,
			"byteOffset":15616,
			"target":34963
		}
	],
	"buffers":[
		{
			"byteLength":17548,
			"uri":"data:application/octet-stream;base64,"
		}
	]
}
