{
	"asset":{
		"generator":"Khronos glTF Blender I/O v3.6.27",
		"version":"2.0"
	},
	"scene":0,
	"scenes":[
		{
			"name":"Scene",
			"nodes":[
				0,
				1,
				2
			]
		}
	],
	"nodes":[
		{
			"mesh":0,
			"name":"Body"
		},
		{
			"mesh":1,
			"name":"Fins",
			"translation":[
				0,
				-0.039377931505441666,
				-4.859236717224121
			]
		},
		{
			"mesh":2,
			"name":"Tail",
			"translation":[
				0,
				0,
				1.8743599653244019
			]
		}
	],
	"materials":[
		{
			"doubleSided":true,
			"name":"Skin",
			"pbrMetallicRoughness":{
				"baseColorFactor":[
					0.1771312952041626,
					0.1771312952041626,
					0.1771312952041626,
					1
				],
				"metallicFactor":0,
				"roughnessFactor":0.5
			}
		}
	],
	"meshes":[
		{
			"name":"Cube.001",
			"primitives":[
				{
					"attributes":{
						"POSITION":0,
						"NORMAL":1,
						"TEXCOORD_0":2
					},
					"indices":3,
					"material":0
				}
			]
		},
		{
			"name":"Cube.002",
			"primitives":[
				{
					"attributes":{
						"POSITION":4,
						"NORMAL":5,
						"TEXCOORD_0":6
					},
					"indices":7,
					"material":0
				}
			]
		},
		{
			"name":"Cube",
			"primitives":[
				{
					"attributes":{
						"POSITION":8,
						"NORMAL":9,
						"TEXCOORD_0":10
					},
					"indices":11,
					"material":0
				}
			]
		}
	],
	"accessors":[
		{
			"bufferView":0,
			"componentType":5126,
			"count":1844,
			"max":[
				0.4007439613342285,
				1.9941776990890503,
				2.8370182514190674
			],
			"min":[
				-0.4007439911365509,
				-0.8772395253181458,
				-7.010767936706543
			],
			"type":"VEC3"
		},
		{
			"bufferView":1,
			"componentType":5126,
			"count":1844,
			"type":"VEC3"
		},
		{
			"bufferView":2,
			"componentType":5126,
			"count":1844,
			"type":"VEC2"
		},
		{
			"bufferView":3,
			"componentType":5123,
			"count":2928,
			"type":"SCALAR"
		},
		{
			"bufferView":4,
			"componentType":5126,
			"count":800,
			"max":[
				0.4715362787246704,
				-0.3060469925403595,
				1.44235098361969
			],
			"min":[
				-0.471536248922348,
				-1.7096341848373413,
				0.010008556768298149
			],
			"type":"VEC3"
		},
		{
			"bufferView":5,
			"componentType":5126,
			"count":800,
			"type":"VEC3"
		},
		{
			"bufferView":6,
			"componentType":5126,
			"count":800,
			"type":"VEC2"
		},
		{
			"bufferView":7,
			"componentType":5123,
			"count":1200,
			"type":"SCALAR"
		},
		{
			"bufferView":8,
			"componentType":5126,
			"count":467,
			"max":[
				0.9507412910461426,
				-0.27431347966194153,
				1.2827686071395874
			],
			"min":[
				-0.9507412910461426,
				-0.6238390207290649,
				0.13869023323059082
			],
			"type":"VEC3"
		},
		{
			"bufferView":9,
			"componentType":5126,
			"count":467,
			"type":"VEC3"
		},
		{
			"bufferView":10,
			"componentType":5126,
			"count":467,
			"type":"VEC2"
		},
		{
			"bufferView":11,
			"componentType":5123,
			"count":744,
			"type":"SCALAR"
		}
	],
	"bufferViews":[
		{
			"buffer":0,
			"byteLength":22128,
			"byteOffset":0,
			"target":34962
		},
		{
			"buffer":0,
			"byteLength":22128,
			"byteOffset":22128,
			"target":34962
		},
		{
			"buffer":0,
			"byteLength":14752,
			"byteOffset":44256,
			"target":34962
		},
		{
			"buffer":0,
			"byteLength":5856,
			"byteOffset":59008,
			"target":34963
		},
		{
			"buffer":0,
			"byteLength":9600,
			"byteOffset":64864,
			"target":34962
		},
		{
			"buffer":0,
			"byteLength":9600,
			"byteOffset":74464,
			"target":34962
		},
		{
			"buffer":0,
			"byteLength":6400,
			"byteOffset":84064,
			"target":34962
		},
		{
			"buffer":0,
			"byteLength":2400,
			"byteOffset":90464,
			"target":34963
		},
		{
			"buffer":0,
			"byteLength":5604,
			"byteOffset":92864,
			"target":34962
		},
		{
			"buffer":0,
			"byteLength":5604,
			"byteOffset":98468,
			"target":34962
		},
		{
			"buffer":0,
			"byteLength":3736,
			"byteOffset":104072,
			"target":34962
		},
		{
			"buffer":0,
			"byteLength":1488,
			"byteOffset":107808,
			"target":34963
		}
	],
	"buffers":[
		{
			"byteLength":109296,
			"uri":"data:application/octet-stream;base64,"
		}
	]
}
