{
	"asset":{
		"generator":"Khronos glTF Blender I/O v3.6.27",
		"version":"2.0"
	},
	"scene":0,
	"scenes":[
		{
			"name":"Scene",
			"nodes":[
				0,
				1,
				2
			]
		}
	],
	"nodes":[
		{
			"mesh":0,
			"name":"Cube"
		},
		{
			"mesh":1,
			"name":"Cube.001",
			"translation":[
				0,
				-0.039377931505441666,
				-4.859236717224121
			]
		},
		{
			"mesh":2,
			"name":"Cube.002",
			"translation":[
				0,
				0,
				1.8743599653244019
			]
		}
	],
	"materials":[
		{
			"doubleSided":true,
			"name":"Skin",
			"pbrMetallicRoughness":{
				"baseColorTexture":{
					"index":0
				},
				"metallicFactor":0,
				"roughnessFactor":0.5
			}
		}
	],
	"meshes":[
		{
			"name":"Cube.001",
			"primitives":[
				{
					"attributes":{
						"POSITION":0,
						"NORMAL":1,
						"TEXCOORD_0":2
					},
					"indices":3,
					"material":0
				}
			]
		},
		{
			"name":"Cube.002",
			"primitives":[
				{
					"attributes":{
						"POSITION":4,
						"NORMAL":5,
						"TEXCOORD_0":6
					},
					"indices":7,
					"material":0
				}
			]
		},
		{
			"name":"Cube",
			"primitives":[
				{
					"attributes":{
						"POSITION":8,
						"NORMAL":9,
						"TEXCOORD_0":10
					},
					"indices":11,
					"material":0
				}
			]
		}
	],
	"textures":[
		{
			"sampler":0,
			"source":0
		}
	],
	"images":[
		{
			"bufferView":4,
			"mimeType":"image/png",
			"name":"skin"
		}
	],
	"accessors":[
		{
			"bufferView":0,
			"componentType":5126,
			"count":1837,
			"max":[
				0.48058685660362244,
				1.9941776990890503,
				2.8370182514190674
			],
			"min":[
				-0.4805868864059448,
				-0.877239465713501,
				-7.010767936706543
			],
			"type":"VEC3"
		},
		{
			"bufferView":1,
			"componentType":5126,
			"count":1837,
			"type":"VEC3"
		},
		{
			"bufferView":2,
			"componentType":5126,
			"count":1837,
			"type":"VEC2"
		},
		{
			"bufferView":3,
			"componentType":5123,
			"count":2928,
			"type":"SCALAR"
		},
		{
			"bufferView":5,
			"componentType":5126,
			"count":800,
			"max":[
				0.4715362787246704,
				-0.3060469925403595,
				1.44235098361969
			],
			"min":[
				-0.471536248922348,
				-1.7096341848373413,
				0.010008556768298149
			],
			"type":"VEC3"
		},
		{
			"bufferView":6,
			"componentType":5126,
			"count":800,
			"type":"VEC3"
		},
		{
			"bufferView":7,
			"componentType":5126,
			"count":800,
			"type":"VEC2"
		},
		{
			"bufferView":8,
			"componentType":5123,
			"count":1200,
			"type":"SCALAR"
		},
		{
			"bufferView":9,
			"componentType":5126,
			"count":467,
			"max":[
				0.9507412910461426,
				-0.27431347966194153,
				1.2827686071395874
			],
			"min":[
				-0.9507412910461426,
				-0.6238390207290649,
				0.13869023323059082
			],
			"type":"VEC3"
		},
		{
			"bufferView":10,
			"componentType":5126,
			"count":467,
			"type":"VEC3"
		},
		{
			"bufferView":11,
			"componentType":5126,
			"count":467,
			"type":"VEC2"
		},
		{
			"bufferView":12,
			"componentType":5123,
			"count":744,
			"type":"SCALAR"
		}
	],
	"bufferViews":[
		{
			"buffer":0,
			"byteLength":22044,
			"byteOffset":0,
			"target":34962
		},
		{
			"buffer":0,
			"byteLength":22044,
			"byteOffset":22044,
			"target":34962
		},
		{
			"buffer":0,
			"byteLength":14696,
			"byteOffset":44088,
			"target":34962
		},
		{
			"buffer":0,
			"byteLength":5856,
			"byteOffset":58784,
			"target":34963
		},
		{
			"buffer":0,
			"byteLength":12564,
			"byteOffset":64640
		},
		{
			"buffer":0,
			"byteLength":9600,
			"byteOffset":77204,
			"target":34962
		},
		{
			"buffer":0,
			"byteLength":9600,
			"byteOffset":86804,
			"target":34962
		},
		{
			"buffer":0,
			"byteLength":6400,
			"byteOffset":96404,
			"target":34962
		},
		{
			"buffer":0,
			"byteLength":2400,
			"byteOffset":102804,
			"target":34963
		},
		{
			"buffer":0,
			"byteLength":5604,
			"byteOffset":105204,
			"target":34962
		},
		{
			"buffer":0,
			"byteLength":5604,
			"byteOffset":110808,
			"target":34962
		},
		{
			"buffer":0,
			"byteLength":3736,
			"byteOffset":116412,
			"target":34962
		},
		{
			"buffer":0,
			"byteLength":1488,
			"byteOffset":120148,
			"target":34963
		}
	],
	"samplers":[
		{
			"magFilter":9729,
			"minFilter":9987
		}
	],
	"buffers":[
		{
			"byteLength":121636,
			"uri":"data:application/octet-stream;base64,"
		}
	]
}
