{
	"asset":{
		"generator":"Khronos glTF Blender I/O v3.6.27",
		"version":"2.0"
	},
	"scene":0,
	"scenes":[
		{
			"name":"Scene",
			"nodes":[
				0,
				8,
				16
			]
		}
	],
	"nodes":[
		{
			"mesh":0,
			"name":"Body"
		},
		{
			"name":"Bone.009",
			"rotation":[
				0.2069571614265442,
				-0.2399872988462448,
				-0.09700555354356766,
				0.9434854388237
			],
			"scale":[
				1,
				1,
				0.9999999403953552
			],
			"translation":[
				-5.774199962615967e-08,
				0.28987836837768555,
				3.5390257835388184e-08
			]
		},
		{
			"children":[
				1
			],
			"name":"Bone.008",
			"rotation":[
				0.009350501000881195,
				-0.40065905451774597,
				0.13924165070056915,
				0.9055366516113281
			],
			"scale":[
				0.9999998807907104,
				1.0000001192092896,
				0.9999998807907104
			],
			"translation":[
				9.12696123123169e-08,
				0.35612753033638,
				2.9802322387695312e-08
			]
		},
		{
			"children":[
				2
			],
			"name":"Bone.007",
			"rotation":[
				-0.045533496886491776,
				-0.3635293245315552,
				0.05165532976388931,
				0.929034411907196
			],
			"scale":[
				1,
				1.000000238418579,
				1
			],
			"translation":[
				2.421438694000244e-08,
				0.48361411690711975,
				-9.313225746154785e-09
			]
		},
		{
			"children":[
				3
			],
			"name":"Bone.006",
			"rotation":[
				0.17406323552131653,
				0.4466143250465393,
				-0.05666849762201309,
				0.8758004307746887
			],
			"scale":[
				0.9999999403953552,
				0.9999999403953552,
				1
			],
			"translation":[
				6.146728992462158e-08,
				0.44645845890045166,
				-9.313225746154785e-09
			]
		},
		{
			"children":[
				4
			],
			"name":"Bone.005",
			"rotation":[
				0.9837453365325928,
				0.11165981739759445,
				0.10231657326221466,
				0.09648091346025467
			],
			"scale":[
				1,
				0.9999999403953552,
				1
			],
			"translation":[
				0.09008839726448059,
				-0.40102776885032654,
				-0.02206038497388363
			]
		},
		{
			"name":"Bone.010",
			"rotation":[
				-0.06493484228849411,
				0.7215993404388428,
				0.06831807643175125,
				0.6858648061752319
			],
			"scale":[
				1,
				0.9999999403953552,
				0.9999999403953552
			],
			"translation":[
				0.09008839726448059,
				-0.40102776885032654,
				-0.02206038497388363
			]
		},
		{
			"mesh":1,
			"name":"Cube.001",
			"skin":0
		},
		{
			"children":[
				7,
				5,
				6
			],
			"name":"Right_Wing",
			"rotation":[
				0,
				0,
				0.6374024748802185,
				0.7705311179161072
			],
			"translation":[
				-0.1666998714208603,
				-0.6615492105484009,
				-0.09844491630792618
			]
		},
		{
			"name":"Bone.004",
			"rotation":[
				-0.23205219209194183,
				-0.011931661516427994,
				0.04648172855377197,
				0.9715188145637512
			],
			"scale":[
				1,
				0.9999998807907104,
				1
			],
			"translation":[
				-2.7815985959023237e-08,
				0.26302552223205566,
				4.656612873077393e-10
			]
		},
		{
			"children":[
				9
			],
			"name":"Bone.003",
			"rotation":[
				0.00028992764418944716,
				-3.066203291268721e-08,
				0.0631379634141922,
				0.9980047941207886
			],
			"translation":[
				2.956221578642726e-08,
				0.27430951595306396,
				3.3105607144534588e-09
			]
		},
		{
			"children":[
				10
			],
			"name":"Bone.002",
			"rotation":[
				0.0006759949028491974,
				-1.4901222300522932e-07,
				0.14719541370868683,
				0.9891072511672974
			],
			"scale":[
				0.9999999403953552,
				1,
				1
			],
			"translation":[
				-3.400782588869333e-08,
				0.5601033568382263,
				-8.149072527885437e-10
			]
		},
		{
			"children":[
				11
			],
			"name":"Bone.001",
			"rotation":[
				-0.10474265366792679,
				-0.0024867842439562082,
				-0.10300862789154053,
				0.9891471266746521
			],
			"scale":[
				0.9999999403953552,
				0.9999998807907104,
				1.0000001192092896
			],
			"translation":[
				4.8370566219091415e-08,
				0.45916712284088135,
				1.4901161193847656e-08
			]
		},
		{
			"children":[
				12
			],
			"name":"Bone",
			"rotation":[
				0.10435235500335693,
				-0.005668109282851219,
				0.04739884287118912,
				0.9933940768241882
			],
			"scale":[
				0.9999998807907104,
				1,
				0.9999999403953552
			],
			"translation":[
				-0.021796774119138718,
				0.11422781646251678,
				-0.018908733502030373
			]
		},
		{
			"name":"Bone.005",
			"rotation":[
				-0.7039669156074524,
				-0.06656429916620255,
				-0.7039665579795837,
				0.06656433641910553
			],
			"scale":[
				1.0000001192092896,
				1.0000001192092896,
				1
			],
			"translation":[
				-0.021796774119138718,
				0.11422781646251678,
				-0.018908733502030373
			]
		},
		{
			"mesh":2,
			"name":"Cube.002",
			"skin":1
		},
		{
			"children":[
				15,
				13,
				14
			],
			"name":"Left_Wing",
			"rotation":[
				0,
				0,
				0.6374024748802185,
				0.7705311179161072
			],
			"translation":[
				-0.1666998714208603,
				-0.6615492105484009,
				-0.09844491630792618
			]
		}
	],
	"animations":[
		{
			"channels":[
				{
					"sampler":0,
					"target":{
						"node":5,
						"path":"translation"
					}
				},
				{
					"sampler":1,
					"target":{
						"node":5,
						"path":"rotation"
					}
				},
				{
					"sampler":2,
					"target":{
						"node":5,
						"path":"scale"
					}
				},
				{
					"sampler":3,
					"target":{
						"node":4,
						"path":"translation"
					}
				},
				{
					"sampler":4,
					"target":{
						"node":4,
						"path":"rotation"
					}
				},
				{
					"sampler":5,
					"target":{
						"node":4,
						"path":"scale"
					}
				},
				{
					"sampler":6,
					"target":{
						"node":3,
						"path":"translation"
					}
				},
				{
					"sampler":7,
					"target":{
						"node":3,
						"path":"rotation"
					}
				},
				{
					"sampler":8,
					"target":{
						"node":3,
						"path":"scale"
					}
				},
				{
					"sampler":9,
					"target":{
						"node":2,
						"path":"translation"
					}
				},
				{
					"sampler":10,
					"target":{
						"node":2,
						"path":"rotation"
					}
				},
				{
					"sampler":11,
					"target":{
						"node":2,
						"path":"scale"
					}
				},
				{
					"sampler":12,
					"target":{
						"node":1,
						"path":"translation"
					}
				},
				{
					"sampler":13,
					"target":{
						"node":1,
						"path":"rotation"
					}
				},
				{
					"sampler":14,
					"target":{
						"node":1,
						"path":"scale"
					}
				},
				{
					"sampler":15,
					"target":{
						"node":6,
						"path":"translation"
					}
				},
				{
					"sampler":16,
					"target":{
						"node":6,
						"path":"rotation"
					}
				},
				{
					"sampler":17,
					"target":{
						"node":6,
						"path":"scale"
					}
				}
			],
			"name":"Right_WingAction",
			"samplers":[
				{
					"input":18,
					"interpolation":"STEP",
					"output":19
				},
				{
					"input":20,
					"interpolation":"LINEAR",
					"output":21
				},
				{
					"input":18,
					"interpolation":"STEP",
					"output":22
				},
				{
					"input":18,
					"interpolation":"STEP",
					"output":23
				},
				{
					"input":18,
					"interpolation":"STEP",
					"output":24
				},
				{
					"input":18,
					"interpolation":"STEP",
					"output":25
				},
				{
					"input":18,
					"interpolation":"STEP",
					"output":26
				},
				{
					"input":20,
					"interpolation":"LINEAR",
					"output":27
				},
				{
					"input":18,
					"interpolation":"LINEAR",
					"output":28
				},
				{
					"input":18,
					"interpolation":"LINEAR",
					"output":29
				},
				{
					"input":20,
					"interpolation":"LINEAR",
					"output":30
				},
				{
					"input":18,
					"interpolation":"STEP",
					"output":31
				},
				{
					"input":18,
					"interpolation":"LINEAR",
					"output":32
				},
				{
					"input":18,
					"interpolation":"LINEAR",
					"output":33
				},
				{
					"input":18,
					"interpolation":"STEP",
					"output":34
				},
				{
					"input":18,
					"interpolation":"STEP",
					"output":35
				},
				{
					"input":18,
					"interpolation":"STEP",
					"output":36
				},
				{
					"input":18,
					"interpolation":"STEP",
					"output":37
				}
			]
		},
		{
			"channels":[
				{
					"sampler":0,
					"target":{
						"node":13,
						"path":"translation"
					}
				},
				{
					"sampler":1,
					"target":{
						"node":13,
						"path":"rotation"
					}
				},
				{
					"sampler":2,
					"target":{
						"node":13,
						"path":"scale"
					}
				},
				{
					"sampler":3,
					"target":{
						"node":12,
						"path":"translation"
					}
				},
				{
					"sampler":4,
					"target":{
						"node":12,
						"path":"rotation"
					}
				},
				{
					"sampler":5,
					"target":{
						"node":12,
						"path":"scale"
					}
				},
				{
					"sampler":6,
					"target":{
						"node":11,
						"path":"translation"
					}
				},
				{
					"sampler":7,
					"target":{
						"node":11,
						"path":"rotation"
					}
				},
				{
					"sampler":8,
					"target":{
						"node":11,
						"path":"scale"
					}
				},
				{
					"sampler":9,
					"target":{
						"node":10,
						"path":"translation"
					}
				},
				{
					"sampler":10,
					"target":{
						"node":10,
						"path":"rotation"
					}
				},
				{
					"sampler":11,
					"target":{
						"node":10,
						"path":"scale"
					}
				},
				{
					"sampler":12,
					"target":{
						"node":9,
						"path":"translation"
					}
				},
				{
					"sampler":13,
					"target":{
						"node":9,
						"path":"rotation"
					}
				},
				{
					"sampler":14,
					"target":{
						"node":9,
						"path":"scale"
					}
				},
				{
					"sampler":15,
					"target":{
						"node":14,
						"path":"translation"
					}
				},
				{
					"sampler":16,
					"target":{
						"node":14,
						"path":"rotation"
					}
				},
				{
					"sampler":17,
					"target":{
						"node":14,
						"path":"scale"
					}
				}
			],
			"name":"Left_WingAction",
			"samplers":[
				{
					"input":38,
					"interpolation":"STEP",
					"output":39
				},
				{
					"input":40,
					"interpolation":"LINEAR",
					"output":41
				},
				{
					"input":38,
					"interpolation":"STEP",
					"output":42
				},
				{
					"input":38,
					"interpolation":"STEP",
					"output":43
				},
				{
					"input":38,
					"interpolation":"STEP",
					"output":44
				},
				{
					"input":38,
					"interpolation":"STEP",
					"output":45
				},
				{
					"input":38,
					"interpolation":"STEP",
					"output":46
				},
				{
					"input":38,
					"interpolation":"STEP",
					"output":47
				},
				{
					"input":38,
					"interpolation":"STEP",
					"output":48
				},
				{
					"input":38,
					"interpolation":"STEP",
					"output":49
				},
				{
					"input":40,
					"interpolation":"LINEAR",
					"output":50
				},
				{
					"input":38,
					"interpolation":"STEP",
					"output":51
				},
				{
					"input":38,
					"interpolation":"STEP",
					"output":52
				},
				{
					"input":38,
					"interpolation":"STEP",
					"output":53
				},
				{
					"input":38,
					"interpolation":"STEP",
					"output":54
				},
				{
					"input":38,
					"interpolation":"STEP",
					"output":55
				},
				{
					"input":38,
					"interpolation":"STEP",
					"output":56
				},
				{
					"input":38,
					"interpolation":"STEP",
					"output":57
				}
			]
		}
	],
	"materials":[
		{
			"doubleSided":true,
			"name":"Seagull",
			"pbrMetallicRoughness":{
				"baseColorTexture":{
					"index":0
				},
				"metallicFactor":0,
				"roughnessFactor":0.5
			}
		}
	],
	"meshes":[
		{
			"name":"Cube.001",
			"primitives":[
				{
					"attributes":{
						"POSITION":0,
						"NORMAL":1,
						"TEXCOORD_0":2
					},
					"indices":3,
					"material":0
				}
			]
		},
		{
			"name":"Cube.002",
			"primitives":[
				{
					"attributes":{
						"POSITION":4,
						"NORMAL":5,
						"TEXCOORD_0":6,
						"JOINTS_0":7,
						"WEIGHTS_0":8
					},
					"indices":9,
					"material":0
				}
			]
		},
		{
			"name":"Cube.003",
			"primitives":[
				{
					"attributes":{
						"POSITION":11,
						"NORMAL":12,
						"TEXCOORD_0":13,
						"JOINTS_0":14,
						"WEIGHTS_0":15
					},
					"indices":16,
					"material":0
				}
			]
		}
	],
	"textures":[
		{
			"sampler":0,
			"source":0
		}
	],
	"images":[
		{
			"bufferView":4,
			"mimeType":"image/png",
			"name":"Seagull"
		}
	],
	"skins":[
		{
			"inverseBindMatrices":10,
			"joints":[
				5,
				4,
				3,
				2,
				1,
				6
			],
			"name":"Right_Wing"
		},
		{
			"inverseBindMatrices":17,
			"joints":[
				13,
				12,
				11,
				10,
				9,
				14
			],
			"name":"Left_Wing"
		}
	],
	"accessors":[
		{
			"bufferView":0,
			"componentType":5126,
			"count":982,
			"max":[
				0.47389334440231323,
				-0.3886876106262207,
				1.406525731086731
			],
			"min":[
				-0.47389331459999084,
				-1.082037329673767,
				-1.6643195152282715
			],
			"type":"VEC3"
		},
		{
			"bufferView":1,
			"componentType":5126,
			"count":982,
			"type":"VEC3"
		},
		{
			"bufferView":2,
			"componentType":5126,
			"count":982,
			"type":"VEC2"
		},
		{
			"bufferView":3,
			"componentType":5123,
			"count":1584,
			"type":"SCALAR"
		},
		{
			"bufferView":5,
			"componentType":5126,
			"count":329,
			"max":[
				3.1087279319763184,
				-0.3969871699810028,
				0.6287227272987366
			],
			"min":[
				-4.008806442357127e-08,
				-0.8002011179924011,
				-0.8330380320549011
			],
			"type":"VEC3"
		},
		{
			"bufferView":6,
			"componentType":5126,
			"count":329,
			"type":"VEC3"
		},
		{
			"bufferView":7,
			"componentType":5126,
			"count":329,
			"type":"VEC2"
		},
		{
			"bufferView":8,
			"componentType":5121,
			"count":329,
			"type":"VEC4"
		},
		{
			"bufferView":9,
			"componentType":5126,
			"count":329,
			"type":"VEC4"
		},
		{
			"bufferView":10,
			"componentType":5123,
			"count":504,
			"type":"SCALAR"
		},
		{
			"bufferView":11,
			"componentType":5126,
			"count":6,
			"type":"MAT4"
		},
		{
			"bufferView":12,
			"componentType":5126,
			"count":329,
			"max":[
				6.377412375968561e-08,
				-0.3969871699810028,
				0.6287229657173157
			],
			"min":[
				-3.1087279319763184,
				-0.8002011775970459,
				-0.8330374956130981
			],
			"type":"VEC3"
		},
		{
			"bufferView":13,
			"componentType":5126,
			"count":329,
			"type":"VEC3"
		},
		{
			"bufferView":14,
			"componentType":5126,
			"count":329,
			"type":"VEC2"
		},
		{
			"bufferView":15,
			"componentType":5121,
			"count":329,
			"type":"VEC4"
		},
		{
			"bufferView":16,
			"componentType":5126,
			"count":329,
			"type":"VEC4"
		},
		{
			"bufferView":17,
			"componentType":5123,
			"count":504,
			"type":"SCALAR"
		},
		{
			"bufferView":18,
			"componentType":5126,
			"count":6,
			"type":"MAT4"
		},
		{
			"bufferView":19,
			"componentType":5126,
			"count":2,
			"max":[
				1.6666666666666667
			],
			"min":[
				0.041666666666666664
			],
			"type":"SCALAR"
		},
		{
			"bufferView":20,
			"componentType":5126,
			"count":2,
			"type":"VEC3"
		},
		{
			"bufferView":21,
			"componentType":5126,
			"count":40,
			"max":[
				1.6666666666666667
			],
			"min":[
				0.041666666666666664
			],
			"type":"SCALAR"
		},
		{
			"bufferView":22,
			"componentType":5126,
			"count":40,
			"type":"VEC4"
		},
		{
			"bufferView":23,
			"componentType":5126,
			"count":2,
			"type":"VEC3"
		},
		{
			"bufferView":24,
			"componentType":5126,
			"count":2,
			"type":"VEC3"
		},
		{
			"bufferView":25,
			"componentType":5126,
			"count":2,
			"type":"VEC4"
		},
		{
			"bufferView":26,
			"componentType":5126,
			"count":2,
			"type":"VEC3"
		},
		{
			"bufferView":27,
			"componentType":5126,
			"count":2,
			"type":"VEC3"
		},
		{
			"bufferView":28,
			"componentType":5126,
			"count":40,
			"type":"VEC4"
		},
		{
			"bufferView":29,
			"componentType":5126,
			"count":2,
			"type":"VEC3"
		},
		{
			"bufferView":30,
			"componentType":5126,
			"count":2,
			"type":"VEC3"
		},
		{
			"bufferView":31,
			"componentType":5126,
			"count":40,
			"type":"VEC4"
		},
		{
			"bufferView":32,
			"componentType":5126,
			"count":2,
			"type":"VEC3"
		},
		{
			"bufferView":33,
			"componentType":5126,
			"count":2,
			"type":"VEC3"
		},
		{
			"bufferView":34,
			"componentType":5126,
			"count":2,
			"type":"VEC4"
		},
		{
			"bufferView":35,
			"componentType":5126,
			"count":2,
			"type":"VEC3"
		},
		{
			"bufferView":36,
			"componentType":5126,
			"count":2,
			"type":"VEC3"
		},
		{
			"bufferView":37,
			"componentType":5126,
			"count":2,
			"type":"VEC4"
		},
		{
			"bufferView":38,
			"componentType":5126,
			"count":2,
			"type":"VEC3"
		},
		{
			"bufferView":39,
			"componentType":5126,
			"count":2,
			"max":[
				1.25
			],
			"min":[
				0.041666666666666664
			],
			"type":"SCALAR"
		},
		{
			"bufferView":40,
			"componentType":5126,
			"count":2,
			"type":"VEC3"
		},
		{
			"bufferView":41,
			"componentType":5126,
			"count":30,
			"max":[
				1.25
			],
			"min":[
				0.041666666666666664
			],
			"type":"SCALAR"
		},
		{
			"bufferView":42,
			"componentType":5126,
			"count":30,
			"type":"VEC4"
		},
		{
			"bufferView":43,
			"componentType":5126,
			"count":2,
			"type":"VEC3"
		},
		{
			"bufferView":44,
			"componentType":5126,
			"count":2,
			"type":"VEC3"
		},
		{
			"bufferView":45,
			"componentType":5126,
			"count":2,
			"type":"VEC4"
		},
		{
			"bufferView":46,
			"componentType":5126,
			"count":2,
			"type":"VEC3"
		},
		{
			"bufferView":47,
			"componentType":5126,
			"count":2,
			"type":"VEC3"
		},
		{
			"bufferView":48,
			"componentType":5126,
			"count":2,
			"type":"VEC4"
		},
		{
			"bufferView":49,
			"componentType":5126,
			"count":2,
			"type":"VEC3"
		},
		{
			"bufferView":50,
			"componentType":5126,
			"count":2,
			"type":"VEC3"
		},
		{
			"bufferView":51,
			"componentType":5126,
			"count":30,
			"type":"VEC4"
		},
		{
			"bufferView":52,
			"componentType":5126,
			"count":2,
			"type":"VEC3"
		},
		{
			"bufferView":53,
			"componentType":5126,
			"count":2,
			"type":"VEC3"
		},
		{
			"bufferView":54,
			"componentType":5126,
			"count":2,
			"type":"VEC4"
		},
		{
			"bufferView":55,
			"componentType":5126,
			"count":2,
			"type":"VEC3"
		},
		{
			"bufferView":56,
			"componentType":5126,
			"count":2,
			"type":"VEC3"
		},
		{
			"bufferView":57,
			"componentType":5126,
			"count":2,
			"type":"VEC4"
		},
		{
			"bufferView":58,
			"componentType":5126,
			"count":2,
			"type":"VEC3"
		}
	],
	"bufferViews":[
		{
			"buffer":0,
			"byteLength":11784,
			"byteOffset":0,
			"target":34962
		},
		{
			"buffer":0,
			"byteLength":11784,
			"byteOffset":11784,
			"target":34962
		},
		{
			"buffer":0,
			"byteLength":7856,
			"byteOffset":23568,
			"target":34962
		},
		{
			"buffer":0,
			"byteLength":3168,
			"byteOffset":31424,
			"target":34963
		},
		{
			"buffer":0,
			"byteLength":47811,
			"byteOffset":34592
		},
		{
			"buffer":0,
			"byteLength":3948,
			"byteOffset":82404,
			"target":34962
		},
		{
			"buffer":0,
			"byteLength":3948,
			"byteOffset":86352,
			"target":34962
		},
		{
			"buffer":0,
			"byteLength":2632,
			"byteOffset":90300,
			"target":34962
		},
		{
			"buffer":0,
			"byteLength":1316,
			"byteOffset":92932,
			"target":34962
		},
		{
			"buffer":0,
			"byteLength":5264,
			"byteOffset":94248,
			"target":34962
		},
		{
			"buffer":0,
			"byteLength":1008,
			"byteOffset":99512,
			"target":34963
		},
		{
			"buffer":0,
			"byteLength":384,
			"byteOffset":100520
		},
		{
			"buffer":0,
			"byteLength":3948,
			"byteOffset":100904,
			"target":34962
		},
		{
			"buffer":0,
			"byteLength":3948,
			"byteOffset":104852,
			"target":34962
		},
		{
			"buffer":0,
			"byteLength":2632,
			"byteOffset":108800,
			"target":34962
		},
		{
			"buffer":0,
			"byteLength":1316,
			"byteOffset":111432,
			"target":34962
		},
		{
			"buffer":0,
			"byteLength":5264,
			"byteOffset":112748,
			"target":34962
		},
		{
			"buffer":0,
			"byteLength":1008,
			"byteOffset":118012,
			"target":34963
		},
		{
			"buffer":0,
			"byteLength":384,
			"byteOffset":119020
		},
		{
			"buffer":0,
			"byteLength":8,
			"byteOffset":119404
		},
		{
			"buffer":0,
			"byteLength":24,
			"byteOffset":119412
		},
		{
			"buffer":0,
			"byteLength":160,
			"byteOffset":119436
		},
		{
			"buffer":0,
			"byteLength":640,
			"byteOffset":119596
		},
		{
			"buffer":0,
			"byteLength":24,
			"byteOffset":120236
		},
		{
			"buffer":0,
			"byteLength":24,
			"byteOffset":120260
		},
		{
			"buffer":0,
			"byteLength":32,
			"byteOffset":120284
		},
		{
			"buffer":0,
			"byteLength":24,
			"byteOffset":120316
		},
		{
			"buffer":0,
			"byteLength":24,
			"byteOffset":120340
		},
		{
			"buffer":0,
			"byteLength":640,
			"byteOffset":120364
		},
		{
			"buffer":0,
			"byteLength":24,
			"byteOffset":121004
		},
		{
			"buffer":0,
			"byteLength":24,
			"byteOffset":121028
		},
		{
			"buffer":0,
			"byteLength":640,
			"byteOffset":121052
		},
		{
			"buffer":0,
			"byteLength":24,
			"byteOffset":121692
		},
		{
			"buffer":0,
			"byteLength":24,
			"byteOffset":121716
		},
		{
			"buffer":0,
			"byteLength":32,
			"byteOffset":121740
		},
		{
			"buffer":0,
			"byteLength":24,
			"byteOffset":121772
		},
		{
			"buffer":0,
			"byteLength":24,
			"byteOffset":121796
		},
		{
			"buffer":0,
			"byteLength":32,
			"byteOffset":121820
		},
		{
			"buffer":0,
			"byteLength":24,
			"byteOffset":121852
		},
		{
			"buffer":0,
			"byteLength":8,
			"byteOffset":121876
		},
		{
			"buffer":0,
			"byteLength":24,
			"byteOffset":121884
		},
		{
			"buffer":0,
			"byteLength":120,
			"byteOffset":121908
		},
		{
			"buffer":0,
			"byteLength":480,
			"byteOffset":122028
		},
		{
			"buffer":0,
			"byteLength":24,
			"byteOffset":122508
		},
		{
			"buffer":0,
			"byteLength":24,
			"byteOffset":122532
		},
		{
			"buffer":0,
			"byteLength":32,
			"byteOffset":122556
		},
		{
			"buffer":0,
			"byteLength":24,
			"byteOffset":122588
		},
		{
			"buffer":0,
			"byteLength":24,
			"byteOffset":122612
		},
		{
			"buffer":0,
			"byteLength":32,
			"byteOffset":122636
		},
		{
			"buffer":0,
			"byteLength":24,
			"byteOffset":122668
		},
		{
			"buffer":0,
			"byteLength":24,
			"byteOffset":122692
		},
		{
			"buffer":0,
			"byteLength":480,
			"byteOffset":122716
		},
		{
			"buffer":0,
			"byteLength":24,
			"byteOffset":123196
		},
		{
			"buffer":0,
			"byteLength":24,
			"byteOffset":123220
		},
		{
			"buffer":0,
			"byteLength":32,
			"byteOffset":123244
		},
		{
			"buffer":0,
			"byteLength":24,
			"byteOffset":123276
		},
		{
			"buffer":0,
			"byteLength":24,
			"byteOffset":123300
		},
		{
			"buffer":0,
			"byteLength":32,
			"byteOffset":123324
		},
		{
			"buffer":0,
			"byteLength":24,
			"byteOffset":123356
		}
	],
	"samplers":[
		{
			"magFilter":9729,
			"minFilter":9987
		}
	],
	"buffers":[
		{
			"byteLength":123380,
			"uri":"data:application/octet-stream;base64,"
		}
	]
}
