{"asset":{"version":"2.0","generator":"Blockbench 4.7.2 glTF exporter"},"scenes":[{"nodes":[10],"name":"blockbench_export"}],"scene":0,"nodes":[{"name":"tube","mesh":0},{"name":"circle","mesh":1},{"name":"circle","mesh":2},{"name":"Metal","mesh":3},{"name":"Metal","mesh":4},{"name":"Metal","mesh":5},{"name":"Metal","mesh":6},{"name":"Metal","mesh":7},{"name":"Metal","mesh":8},{"name":"Metal","children":[3,4,5,6,7,8]},{"children":[0,1,2,9]}],"bufferViews":[{"buffer":0,"byteOffset":0,"byteLength":2304,"target":34962,"byteStride":12},{"buffer":0,"byteOffset":2304,"byteLength":2304,"target":34962,"byteStride":12},{"buffer":0,"byteOffset":4608,"byteLength":1536,"target":34962,"byteStride":8},{"buffer":0,"byteOffset":6144,"byteLength":576,"target":34963},{"buffer":0,"byteOffset":6720,"byteLength":432,"target":34962,"byteStride":12},{"buffer":0,"byteOffset":7152,"byteLength":432,"target":34962,"byteStride":12},{"buffer":0,"byteOffset":7584,"byteLength":288,"target":34962,"byteStride":8},{"buffer":0,"byteOffset":7872,"byteLength":72,"target":34963},{"buffer":0,"byteOffset":7944,"byteLength":432,"target":34962,"byteStride":12},{"buffer":0,"byteOffset":8376,"byteLength":432,"target":34962,"byteStride":12},{"buffer":0,"byteOffset":8808,"byteLength":288,"target":34962,"byteStride":8},{"buffer":0,"byteOffset":9096,"byteLength":72,"target":34963},{"buffer":0,"byteOffset":9168,"byteLength":2304,"target":34962,"byteStride":12},{"buffer":0,"byteOffset":11472,"byteLength":2304,"target":34962,"byteStride":12},{"buffer":0,"byteOffset":13776,"byteLength":1536,"target":34962,"byteStride":8},{"buffer":0,"byteOffset":15312,"byteLength":576,"target":34963},{"buffer":0,"byteOffset":15888,"byteLength":2304,"target":34962,"byteStride":12},{"buffer":0,"byteOffset":18192,"byteLength":2304,"target":34962,"byteStride":12},{"buffer":0,"byteOffset":20496,"byteLength":1536,"target":34962,"byteStride":8},{"buffer":0,"byteOffset":22032,"byteLength":576,"target":34963},{"buffer":0,"byteOffset":22608,"byteLength":2304,"target":34962,"byteStride":12},{"buffer":0,"byteOffset":24912,"byteLength":2304,"target":34962,"byteStride":12},{"buffer":0,"byteOffset":27216,"byteLength":1536,"target":34962,"byteStride":8},{"buffer":0,"byteOffset":28752,"byteLength":576,"target":34963},{"buffer":0,"byteOffset":29328,"byteLength":2304,"target":34962,"byteStride":12},{"buffer":0,"byteOffset":31632,"byteLength":2304,"target":34962,"byteStride":12},{"buffer":0,"byteOffset":33936,"byteLength":1536,"target":34962,"byteStride":8},{"buffer":0,"byteOffset":35472,"byteLength":576,"target":34963},{"buffer":0,"byteOffset":36048,"byteLength":2304,"target":34962,"byteStride":12},{"buffer":0,"byteOffset":38352,"byteLength":2304,"target":34962,"byteStride":12},{"buffer":0,"byteOffset":40656,"byteLength":1536,"target":34962,"byteStride":8},{"buffer":0,"byteOffset":42192,"byteLength":576,"target":34963},{"buffer":0,"byteOffset":42768,"byteLength":2304,"target":34962,"byteStride":12},{"buffer":0,"byteOffset":45072,"byteLength":2304,"target":34962,"byteStride":12},{"buffer":0,"byteOffset":47376,"byteLength":1536,"target":34962,"byteStride":8},{"buffer":0,"byteOffset":48912,"byteLength":576,"target":34963}],"buffers":[{"byteLength":49488,"uri":"data:application/octet-stream;base64,"}],"accessors":[{"bufferView":0,"componentType":5126,"count":192,"max":[0.581250011920929,1.25,0.581250011920929],"min":[-0.581250011920929,-0.03125,-0.581250011920929],"type":"VEC3"},{"bufferView":1,"componentType":5126,"count":192,"max":[0.9924225807189941,1,0.9924225807189941],"min":[-0.9924225807189941,-1,-0.9924225807189941],"type":"VEC3"},{"bufferView":2,"componentType":5126,"count":192,"max":[0.6640625,0.671875],"min":[0.0017141066491603851,0.00041979551315307617],"type":"VEC2"},{"bufferView":3,"componentType":5123,"count":288,"max":[191],"min":[0],"type":"SCALAR"},{"bufferView":4,"componentType":5126,"count":36,"max":[0.45625001192092896,-8.673617379884035e-18,0.45625001192092896],"min":[-0.45625001192092896,-8.673617379884035e-18,-0.45625001192092896],"type":"VEC3"},{"bufferView":5,"componentType":5126,"count":36,"max":[0,1,0],"min":[0,1,0],"type":"VEC3"},{"bufferView":6,"componentType":5126,"count":36,"max":[0.5062500238418579,0.715624988079071],"min":[0.3921875059604645,0.6015625],"type":"VEC2"},{"bufferView":7,"componentType":5123,"count":36,"max":[35],"min":[0],"type":"SCALAR"},{"bufferView":8,"componentType":5126,"count":36,"max":[0.518750011920929,1.225000023841858,0.518750011920929],"min":[-0.518750011920929,1.225000023841858,-0.518750011920929],"type":"VEC3"},{"bufferView":9,"componentType":5126,"count":36,"max":[0,1,0],"min":[0,1,0],"type":"VEC3"},{"bufferView":10,"componentType":5126,"count":36,"max":[0.6703125238418579,0.12968748807907104],"min":[0.5406249761581421,0],"type":"VEC2"},{"bufferView":11,"componentType":5123,"count":36,"max":[35],"min":[0],"type":"SCALAR"},{"bufferView":12,"componentType":5126,"count":192,"max":[0.5249999761581421,0.13750000298023224,0.5249999761581421],"min":[-0.5249999761581421,0.0625,-0.5249999761581421],"type":"VEC3"},{"bufferView":13,"componentType":5126,"count":192,"max":[1,1,1],"min":[-1,-1,-1],"type":"VEC3"},{"bufferView":14,"componentType":5126,"count":192,"max":[0.7480656504631042,0.6656249761581421],"min":[0.0015429687919095159,0.078125],"type":"VEC2"},{"bufferView":15,"componentType":5123,"count":288,"max":[191],"min":[0],"type":"SCALAR"},{"bufferView":16,"componentType":5126,"count":192,"max":[0.5562499761581421,0.918749988079071,0.5562499761581421],"min":[-0.5562499761581421,0.856249988079071,-0.5562499761581421],"type":"VEC3"},{"bufferView":17,"componentType":5126,"count":192,"max":[0.9969308972358704,1,0.9969308972358704],"min":[-0.9969308972358704,-1,-0.9969308972358704],"type":"VEC3"},{"bufferView":18,"componentType":5126,"count":192,"max":[0.5284950733184814,0.4765625],"min":[0.13556741178035736,0],"type":"VEC2"},{"bufferView":19,"componentType":5123,"count":288,"max":[191],"min":[0],"type":"SCALAR"},{"bufferView":20,"componentType":5126,"count":192,"max":[0.5562499761581421,0.35624998807907104,0.5562499761581421],"min":[-0.5562499761581421,0.29374998807907104,-0.5562499761581421],"type":"VEC3"},{"bufferView":21,"componentType":5126,"count":192,"max":[0.9969308972358704,1,0.9969308972358704],"min":[-0.9969308972358704,-1,-0.9969308972358704],"type":"VEC3"},{"bufferView":22,"componentType":5126,"count":192,"max":[0.7394325733184814,0.640625],"min":[0.0015625000232830644,0],"type":"VEC2"},{"bufferView":23,"componentType":5123,"count":288,"max":[191],"min":[0],"type":"SCALAR"},{"bufferView":24,"componentType":5126,"count":192,"max":[0.5249999761581421,1.265625,0.5249999761581421],"min":[-0.5249999761581421,1.2163194417953491,-0.5249999761581421],"type":"VEC3"},{"bufferView":25,"componentType":5126,"count":192,"max":[1,1,1],"min":[-1,-1,-1],"type":"VEC3"},{"bufferView":26,"componentType":5126,"count":192,"max":[0.7644327878952026,0.6702257394790649],"min":[0.0007812500116415322,0.15625],"type":"VEC2"},{"bufferView":27,"componentType":5123,"count":288,"max":[191],"min":[0],"type":"SCALAR"},{"bufferView":28,"componentType":5126,"count":192,"max":[0.5249999761581421,0.015625,0.5249999761581421],"min":[-0.5249999761581421,-0.03368055447936058,-0.5249999761581421],"type":"VEC3"},{"bufferView":29,"componentType":5126,"count":192,"max":[1,1,1],"min":[-1,-1,-1],"type":"VEC3"},{"bufferView":30,"componentType":5126,"count":192,"max":[0.7722452878952026,0.5390625],"min":[0.14921875298023224,0],"type":"VEC2"},{"bufferView":31,"componentType":5123,"count":288,"max":[191],"min":[0],"type":"SCALAR"},{"bufferView":32,"componentType":5126,"count":192,"max":[0.5249999761581421,1.162500023841858,0.5249999761581421],"min":[-0.5249999761581421,1.087499976158142,-0.5249999761581421],"type":"VEC3"},{"bufferView":33,"componentType":5126,"count":192,"max":[1,1,1],"min":[-1,-1,-1],"type":"VEC3"},{"bufferView":34,"componentType":5126,"count":192,"max":[0.7480656504631042,0.6499999761581421],"min":[0.001934375031851232,0.1328125],"type":"VEC2"},{"bufferView":35,"componentType":5123,"count":288,"max":[191],"min":[0],"type":"SCALAR"}],"materials":[{"pbrMetallicRoughness":{"metallicFactor":0,"roughnessFactor":1,"baseColorTexture":{"index":0}},"alphaMode":"MASK","alphaCutoff":0.05,"doubleSided":true}],"textures":[{"sampler":0,"source":0,"name":"Barrel.png"}],"samplers":[{"magFilter":9728,"minFilter":9728,"wrapS":33071,"wrapT":33071}],"images":[{"mimeType":"image/png","uri":"data:image/png;base64,"}],"meshes":[{"primitives":[{"mode":4,"attributes":{"POSITION":0,"NORMAL":1,"TEXCOORD_0":2},"indices":3,"material":0}]},{"primitives":[{"mode":4,"attributes":{"POSITION":4,"NORMAL":5,"TEXCOORD_0":6},"indices":7,"material":0}]},{"primitives":[{"mode":4,"attributes":{"POSITION":8,"NORMAL":9,"TEXCOORD_0":10},"indices":11,"material":0}]},{"primitives":[{"mode":4,"attributes":{"POSITION":12,"NORMAL":13,"TEXCOORD_0":14},"indices":15,"material":0}]},{"primitives":[{"mode":4,"attributes":{"POSITION":16,"NORMAL":17,"TEXCOORD_0":18},"indices":19,"material":0}]},{"primitives":[{"mode":4,"attributes":{"POSITION":20,"NORMAL":21,"TEXCOORD_0":22},"indices":23,"material":0}]},{"primitives":[{"mode":4,"attributes":{"POSITION":24,"NORMAL":25,"TEXCOORD_0":26},"indices":27,"material":0}]},{"primitives":[{"mode":4,"attributes":{"POSITION":28,"NORMAL":29,"TEXCOORD_0":30},"indices":31,"material":0}]},{"primitives":[{"mode":4,"attributes":{"POSITION":32,"NORMAL":33,"TEXCOORD_0":34},"indices":35,"material":0}]}]}